{
  "accessors": [
    {
      "bufferView": 2,
      "componentType": 5126,
      "count": 6,
      "max": [
        1.151108980178833,
        0.8888139724731445,
        0.751800000667572
      ],
      "min": [
        -6.745087146759033,
        -14.086237907409668,
        0.0
      ],
      "type": "VEC3"
    },
    {
      "bufferView": 1,
      "componentType": 5126,
      "count": 6,
      "max": [
        0.0,
        0.0
      ],
      "min": [
        0.0,
        0.0
      ],
      "type": "VEC2"
    },
    {
      "bufferView": 0,
      "componentType": 5125,
      "count": 6,
      "type": "SCALAR"
    },
    {
      "bufferView": 2,
      "byteOffset": 72,
      "componentType": 5126,
      "count": 4,
      "max": [
        -1.852139949798584,
        0.7135090231895447,
        3.3050930500030518
      ],
      "min": [
        -5.832601070404053,
        0.7135090231895447,
        2.2126829624176025
      ],
      "type": "VEC3"
    },
    {
      "bufferView": 2,
      "byteOffset": 120,
      "componentType": 5126,
      "count": 4,
      "max": [
        -0.0,
        -1.0,
        -0.0
      ],
      "min": [
        -0.0,
        -1.0,
        -0.0
      ],
      "type": "VEC3"
    },
    {
      "bufferView": 1,
      "byteOffset": 48,
      "componentType": 5126,
      "count": 4,
      "max": [
        0.0,
        0.0
      ],
      "min": [
        0.0,
        0.0
      ],
      "type": "VEC2"
    },
    {
      "bufferView": 0,
      "byteOffset": 24,
      "componentType": 5125,
      "count": 6,
      "type": "SCALAR"
    },
    {
      "bufferView": 2,
      "byteOffset": 168,
      "componentType": 5126,
      "count": 26,
      "max": [
        5.854403018951416,
        10.670121192932129,
        10.239561080932617
      ],
      "min": [
        -18.499452590942383,
        -32.159759521484375,
        -4.726078033447266
      ],
      "type": "VEC3"
    },
    {
      "bufferView": 2,
      "byteOffset": 480,
      "componentType": 5126,
      "count": 26,
      "max": [
        0.9873105883598328,
        0.7562201023101807,
        -0.0
      ],
      "min": [
        0.6543173789978027,
        0.15880170464515686,
        -0.0
      ],
      "type": "VEC3"
    },
    {
      "bufferView": 1,
      "byteOffset": 80,
      "componentType": 5126,
      "count": 26,
      "max": [
        1.0,
        1.0
      ],
      "min": [
        0.0,
        0.0
      ],
      "type": "VEC2"
    },
    {
      "bufferView": 0,
      "byteOffset": 48,
      "componentType": 5125,
      "count": 72,
      "type": "SCALAR"
    },
    {
      "bufferView": 2,
      "byteOffset": 792,
      "componentType": 5126,
      "count": 9120,
      "max": [
        1.0652070045471191,
        -2.734729051589966,
        1.0612980127334595
      ],
      "min": [
        -6.363271236419678,
        -11.688087463378906,
        0.0004330000083427876
      ],
      "type": "VEC3"
    },
    {
      "bufferView": 2,
      "byteOffset": 110232,
      "componentType": 5126,
      "count": 9120,
      "max": [
        1.0,
        1.0,
        1.0
      ],
      "min": [
        -1.0,
        -1.0,
        -1.0
      ],
      "type": "VEC3"
    },
    {
      "bufferView": 1,
      "byteOffset": 288,
      "componentType": 5126,
      "count": 9120,
      "max": [
        0.988660991191864,
        0.6023010015487671
      ],
      "min": [
        0.569691002368927,
        0.18417100608348846
      ],
      "type": "VEC2"
    },
    {
      "bufferView": 0,
      "byteOffset": 336,
      "componentType": 5125,
      "count": 17208,
      "type": "SCALAR"
    },
    {
      "bufferView": 2,
      "byteOffset": 219672,
      "componentType": 5126,
      "count": 5302,
      "max": [
        0.7059910297393799,
        0.7548760175704956,
        2.112623929977417
      ],
      "min": [
        -6.403372764587402,
        -9.622748374938965,
        0.0320499986410141
      ],
      "type": "VEC3"
    },
    {
      "bufferView": 2,
      "byteOffset": 283296,
      "componentType": 5126,
      "count": 5302,
      "max": [
        0.9999903440475464,
        0.9999903440475464,
        1.0
      ],
      "min": [
        -0.9999903440475464,
        -0.9999903440475464,
        -1.0
      ],
      "type": "VEC3"
    },
    {
      "bufferView": 1,
      "byteOffset": 73248,
      "componentType": 5126,
      "count": 5302,
      "max": [
        0.9898639917373657,
        0.987779974937439
      ],
      "min": [
        0.010607999749481678,
        0.18417100608348846
      ],
      "type": "VEC2"
    },
    {
      "bufferView": 0,
      "byteOffset": 69168,
      "componentType": 5125,
      "count": 14958,
      "type": "SCALAR"
    },
    {
      "bufferView": 2,
      "byteOffset": 346920,
      "componentType": 5126,
      "count": 9955,
      "max": [
        0.7059910297393799,
        0.8981940150260925,
        1.3734639883041382
      ],
      "min": [
        -6.699889183044434,
        -7.0605387687683105,
        -0.0
      ],
      "type": "VEC3"
    },
    {
      "bufferView": 2,
      "byteOffset": 466380,
      "componentType": 5126,
      "count": 9955,
      "max": [
        1.0,
        1.0,
        1.0
      ],
      "min": [
        -1.0,
        -1.0,
        -1.0
      ],
      "type": "VEC3"
    },
    {
      "bufferView": 1,
      "byteOffset": 115664,
      "componentType": 5126,
      "count": 9955,
      "max": [
        0.996209979057312,
        0.6524119973182678
      ],
      "min": [
        0.5316230058670044,
        0.005224000196903944
      ],
      "type": "VEC2"
    },
    {
      "bufferView": 0,
      "byteOffset": 129000,
      "componentType": 5125,
      "count": 25107,
      "type": "SCALAR"
    },
    {
      "bufferView": 2,
      "byteOffset": 585840,
      "componentType": 5126,
      "count": 7115,
      "max": [
        1.147523045539856,
        0.9745200276374817,
        3.300002098083496
      ],
      "min": [
        -6.730608940124512,
        -14.029401779174805,
        -0.013578999787569046
      ],
      "type": "VEC3"
    },
    {
      "bufferView": 2,
      "byteOffset": 671220,
      "componentType": 5126,
      "count": 7115,
      "max": [
        1.0,
        1.0,
        1.0
      ],
      "min": [
        -1.0,
        -1.0,
        -1.0
      ],
      "type": "VEC3"
    },
    {
      "bufferView": 1,
      "byteOffset": 195304,
      "componentType": 5126,
      "count": 7115,
      "max": [
        0.9958620071411133,
        0.9943240284919739
      ],
      "min": [
        0.0,
        0.0
      ],
      "type": "VEC2"
    },
    {
      "bufferView": 0,
      "byteOffset": 229428,
      "componentType": 5125,
      "count": 16188,
      "type": "SCALAR"
    },
    {
      "bufferView": 2,
      "byteOffset": 756600,
      "componentType": 5126,
      "count": 12740,
      "max": [
        -1.8966779708862305,
        -1.1522539854049683,
        1.5623339414596558
      ],
      "min": [
        -6.723733901977539,
        -1.8864099979400635,
        0.10493700206279755
      ],
      "type": "VEC3"
    },
    {
      "bufferView": 2,
      "byteOffset": 909480,
      "componentType": 5126,
      "count": 12740,
      "max": [
        1.0,
        1.0,
        1.0
      ],
      "min": [
        -1.0,
        -1.0,
        -1.0
      ],
      "type": "VEC3"
    },
    {
      "bufferView": 1,
      "byteOffset": 252224,
      "componentType": 5126,
      "count": 12740,
      "max": [
        0.8497250080108643,
        0.9924920201301575
      ],
      "min": [
        0.28577399253845215,
        0.34169599413871765
      ],
      "type": "VEC2"
    },
    {
      "bufferView": 0,
      "byteOffset": 294180,
      "componentType": 5125,
      "count": 38313,
      "type": "SCALAR"
    },
    {
      "bufferView": 2,
      "byteOffset": 1062360,
      "componentType": 5126,
      "count": 9402,
      "max": [
        1.1457240581512451,
        1.130141019821167,
        3.3070709705352783
      ],
      "min": [
        -8.425227165222168,
        -15.764485359191895,
        -0.009999999776482582
      ],
      "type": "VEC3"
    },
    {
      "bufferView": 2,
      "byteOffset": 1175184,
      "componentType": 5126,
      "count": 9402,
      "max": [
        1.0,
        1.0,
        1.0
      ],
      "min": [
        -1.0,
        -1.0,
        -1.0
      ],
      "type": "VEC3"
    },
    {
      "bufferView": 1,
      "byteOffset": 354144,
      "componentType": 5126,
      "count": 9402,
      "max": [
        0.9899060130119324,
        0.9926159977912903
      ],
      "min": [
        0.011315999552607536,
        0.008930999785661697
      ],
      "type": "VEC2"
    },
    {
      "bufferView": 0,
      "byteOffset": 447432,
      "componentType": 5125,
      "count": 26280,
      "type": "SCALAR"
    },
    {
      "bufferView": 2,
      "byteOffset": 1288008,
      "componentType": 5126,
      "count": 10502,
      "max": [
        -1.8238539695739746,
        0.9253050088882446,
        1.7495779991149902
      ],
      "min": [
        -5.672251224517822,
        0.20919199287891388,
        0.8069609999656677
      ],
      "type": "VEC3"
    },
    {
      "bufferView": 2,
      "byteOffset": 1414032,
      "componentType": 5126,
      "count": 10502,
      "max": [
        1.0,
        1.0,
        1.0
      ],
      "min": [
        -1.0,
        -1.0,
        -1.0
      ],
      "type": "VEC3"
    },
    {
      "bufferView": 1,
      "byteOffset": 429360,
      "componentType": 5126,
      "count": 10502,
      "max": [
        0.7480610013008118,
        0.9927669763565063
      ],
      "min": [
        0.004116999916732311,
        0.1509380042552948
      ],
      "type": "VEC2"
    },
    {
      "bufferView": 0,
      "byteOffset": 552552,
      "componentType": 5125,
      "count": 28956,
      "type": "SCALAR"
    },
    {
      "bufferView": 2,
      "byteOffset": 1540056,
      "componentType": 5126,
      "count": 5066,
      "max": [
        -3.3060410022735596,
        -3.367388963699341,
        1.1421680450439453
      ],
      "min": [
        -6.382873058319092,
        -6.594421863555908,
        0.005516999866813421
      ],
      "type": "VEC3"
    },
    {
      "bufferView": 2,
      "byteOffset": 1600848,
      "componentType": 5126,
      "count": 5066,
      "max": [
        1.0,
        1.0,
        1.0
      ],
      "min": [
        -1.0,
        -0.9999339580535889,
        -1.0
      ],
      "type": "VEC3"
    },
    {
      "bufferView": 1,
      "byteOffset": 513376,
      "componentType": 5126,
      "count": 5066,
      "max": [
        0.9905409812927246,
        0.6524119973182678
      ],
      "min": [
        0.5705130100250244,
        0.18417100608348846
      ],
      "type": "VEC2"
    },
    {
      "bufferView": 0,
      "byteOffset": 668376,
      "componentType": 5125,
      "count": 11265,
      "type": "SCALAR"
    },
    {
      "bufferView": 2,
      "byteOffset": 1661640,
      "componentType": 5126,
      "count": 6597,
      "max": [
        -0.8321459889411926,
        0.9256619811058044,
        2.0035150051116943
      ],
      "min": [
        -6.6783342361450195,
        -11.633060455322266,
        0.03227100148797035
      ],
      "type": "VEC3"
    },
    {
      "bufferView": 2,
      "byteOffset": 1740804,
      "componentType": 5126,
      "count": 6597,
      "max": [
        1.0,
        1.0,
        1.0
      ],
      "min": [
        -1.0,
        -1.0,
        -1.0
      ],
      "type": "VEC3"
    },
    {
      "bufferView": 1,
      "byteOffset": 553904,
      "componentType": 5126,
      "count": 6597,
      "max": [
        0.9905229806900024,
        0.9793000221252441
      ],
      "min": [
        0.07742500305175781,
        0.18417100608348846
      ],
      "type": "VEC2"
    },
    {
      "bufferView": 0,
      "byteOffset": 713436,
      "componentType": 5125,
      "count": 14727,
      "type": "SCALAR"
    },
    {
      "bufferView": 2,
      "byteOffset": 1819968,
      "componentType": 5126,
      "count": 670,
      "max": [
        1.1457240581512451,
        0.8877270221710205,
        3.206123113632202
      ],
      "min": [
        -8.425227165222168,
        -15.753342628479004,
        0.025798000395298004
      ],
      "type": "VEC3"
    },
    {
      "bufferView": 2,
      "byteOffset": 1828008,
      "componentType": 5126,
      "count": 670,
      "max": [
        1.0,
        0.9999998807907104,
        1.0
      ],
      "min": [
        -0.9999960660934448,
        -1.0,
        -1.0
      ],
      "type": "VEC3"
    },
    {
      "bufferView": 1,
      "byteOffset": 606680,
      "componentType": 5126,
      "count": 670,
      "max": [
        0.4713999927043915,
        0.6175299882888794
      ],
      "min": [
        0.06693200021982193,
        0.01305299997329712
      ],
      "type": "VEC2"
    },
    {
      "bufferView": 0,
      "byteOffset": 772344,
      "componentType": 5125,
      "count": 1056,
      "type": "SCALAR"
    }
  ],
  "asset": {
    "extras": {
      "author": "MarkoJantti (https://sketchfab.com/MarkoJantti)",
      "license": "CC-BY-4.0 (http://creativecommons.org/licenses/by/4.0/)",
      "source": "https://sketchfab.com/3d-models/low-poly-restaurant-interior-scene-ce81c3ee5c45471ea75fb6222fd64f9e",
      "title": "Low Poly Restaurant Interior Scene"
    },
    "generator": "Sketchfab-17.1.0",
    "version": "2.0"
  },
  "bufferViews": [
    {
      "buffer": 0,
      "byteLength": 776568,
      "name": "floatBufferViews",
      "target": 34963
    },
    {
      "buffer": 0,
      "byteLength": 612040,
      "byteOffset": 776568,
      "byteStride": 8,
      "name": "floatBufferViews",
      "target": 34962
    },
    {
      "buffer": 0,
      "byteLength": 1836048,
      "byteOffset": 1388608,
      "byteStride": 12,
      "name": "floatBufferViews",
      "target": 34962
    }
  ],
  "buffers": [
    {
      "byteLength": 3224656,
      "uri": "scene.bin"
    }
  ],
  "extensionsUsed": [
    "KHR_materials_specular"
  ],
  "images": [
    {
      "uri": "textures/Atlas_baseColor.png"
    },
    {
      "uri": "textures/Bottles_baseColor.png"
    }
  ],
  "materials": [
    {
      "doubleSided": true,
      "extensions": {
        "KHR_materials_specular": {
          "specularColorFactor": [
            1.0,
            1.0,
            1.0
          ],
          "specularFactor": 0.33411674328761587
        }
      },
      "name": "Atlas",
      "pbrMetallicRoughness": {
        "baseColorTexture": {
          "index": 0
        },
        "metallicFactor": 0.0,
        "roughnessFactor": 0.6
      }
    },
    {
      "alphaMode": "BLEND",
      "doubleSided": true,
      "name": "Bottles",
      "pbrMetallicRoughness": {
        "baseColorTexture": {
          "index": 1
        },
        "metallicFactor": 0.0
      }
    },
    {
      "alphaMode": "BLEND",
      "doubleSided": true,
      "name": "Glass",
      "pbrMetallicRoughness": {
        "baseColorFactor": [
          1.0,
          1.0,
          1.0,
          0.07833890461035271
        ],
        "roughnessFactor": 0.0
      }
    },
    {
      "doubleSided": true,
      "name": "material",
      "pbrMetallicRoughness": {
        "baseColorFactor": [
          0.2527042733822202,
          0.6567488396591036,
          1.0,
          1.0
        ],
        "metallicFactor": 0.0,
        "roughnessFactor": 0.6
      }
    }
  ],
  "meshes": [
    {
      "name": "Object_0",
      "primitives": [
        {
          "attributes": {
            "POSITION": 0,
            "TEXCOORD_0": 1
          },
          "indices": 2,
          "material": 1,
          "mode": 1
        }
      ]
    },
    {
      "name": "Object_1",
      "primitives": [
        {
          "attributes": {
            "NORMAL": 4,
            "POSITION": 3,
            "TEXCOORD_0": 5
          },
          "indices": 6,
          "material": 1,
          "mode": 4
        }
      ]
    },
    {
      "name": "Object_2",
      "primitives": [
        {
          "attributes": {
            "NORMAL": 8,
            "POSITION": 7,
            "TEXCOORD_0": 9
          },
          "indices": 10,
          "material": 3,
          "mode": 4
        }
      ]
    },
    {
      "name": "Object_3",
      "primitives": [
        {
          "attributes": {
            "NORMAL": 12,
            "POSITION": 11,
            "TEXCOORD_0": 13
          },
          "indices": 14,
          "material": 0,
          "mode": 4
        }
      ]
    },
    {
      "name": "Object_4",
      "primitives": [
        {
          "attributes": {
            "NORMAL": 16,
            "POSITION": 15,
            "TEXCOORD_0": 17
          },
          "indices": 18,
          "material": 0,
          "mode": 4
        }
      ]
    },
    {
      "name": "Object_5",
      "primitives": [
        {
          "attributes": {
            "NORMAL": 20,
            "POSITION": 19,
            "TEXCOORD_0": 21
          },
          "indices": 22,
          "material": 0,
          "mode": 4
        }
      ]
    },
    {
      "name": "Object_6",
      "primitives": [
        {
          "attributes": {
            "NORMAL": 24,
            "POSITION": 23,
            "TEXCOORD_0": 25
          },
          "indices": 26,
          "material": 0,
          "mode": 4
        }
      ]
    },
    {
      "name": "Object_7",
      "primitives": [
        {
          "attributes": {
            "NORMAL": 28,
            "POSITION": 27,
            "TEXCOORD_0": 29
          },
          "indices": 30,
          "material": 0,
          "mode": 4
        }
      ]
    },
    {
      "name": "Object_8",
      "primitives": [
        {
          "attributes": {
            "NORMAL": 32,
            "POSITION": 31,
            "TEXCOORD_0": 33
          },
          "indices": 34,
          "material": 0,
          "mode": 4
        }
      ]
    },
    {
      "name": "Object_9",
      "primitives": [
        {
          "attributes": {
            "NORMAL": 36,
            "POSITION": 35,
            "TEXCOORD_0": 37
          },
          "indices": 38,
          "material": 0,
          "mode": 4
        }
      ]
    },
    {
      "name": "Object_10",
      "primitives": [
        {
          "attributes": {
            "NORMAL": 40,
            "POSITION": 39,
            "TEXCOORD_0": 41
          },
          "indices": 42,
          "material": 0,
          "mode": 4
        }
      ]
    },
    {
      "name": "Object_11",
      "primitives": [
        {
          "attributes": {
            "NORMAL": 44,
            "POSITION": 43,
            "TEXCOORD_0": 45
          },
          "indices": 46,
          "material": 0,
          "mode": 4
        }
      ]
    },
    {
      "name": "Object_12",
      "primitives": [
        {
          "attributes": {
            "NORMAL": 48,
            "POSITION": 47,
            "TEXCOORD_0": 49
          },
          "indices": 50,
          "material": 2,
          "mode": 4
        }
      ]
    }
  ],
  "nodes": [
    {
      "children": [
        1
      ],
      "matrix": [
        1.0,
        0.0,
        0.0,
        0.0,
        0.0,
        2.220446049250313e-16,
        -1.0,
        0.0,
        0.0,
        1.0,
        2.220446049250313e-16,
        0.0,
        0.0,
        0.0,
        0.0,
        1.0
      ],
      "name": "Sketchfab_model"
    },
    {
      "children": [
        2,
        3,
        4,
        5,
        6,
        7,
        8,
        9,
        10,
        11,
        12,
        13,
        14
      ],
      "name": "DiningRoom.obj.cleaner.materialmerger.gles"
    },
    {
      "mesh": 0,
      "name": "Object_2"
    },
    {
      "mesh": 1,
      "name": "Object_3"
    },
    {
      "mesh": 2,
      "name": "Object_4"
    },
    {
      "mesh": 3,
      "name": "Object_5"
    },
    {
      "mesh": 4,
      "name": "Object_6"
    },
    {
      "mesh": 5,
      "name": "Object_7"
    },
    {
      "mesh": 6,
      "name": "Object_8"
    },
    {
      "mesh": 7,
      "name": "Object_9"
    },
    {
      "mesh": 8,
      "name": "Object_10"
    },
    {
      "mesh": 9,
      "name": "Object_11"
    },
    {
      "mesh": 10,
      "name": "Object_12"
    },
    {
      "mesh": 11,
      "name": "Object_13"
    },
    {
      "mesh": 12,
      "name": "Object_14"
    }
  ],
  "samplers": [
    {
      "magFilter": 9729,
      "minFilter": 9987,
      "wrapS": 10497,
      "wrapT": 10497
    }
  ],
  "scene": 0,
  "scenes": [
    {
      "name": "Sketchfab_Scene",
      "nodes": [
        0
      ]
    }
  ],
  "textures": [
    {
      "sampler": 0,
      "source": 0
    },
    {
      "sampler": 0,
      "source": 1
    }
  ]
}
